<?xml version="1.0" standalone="no"?>
<!DOCTYPE svg PUBLIC "-//W3C//DTD SVG 20010904//EN"
 "http://www.w3.org/TR/2001/REC-SVG-20010904/DTD/svg10.dtd">
<svg version="1.0" xmlns="http://www.w3.org/2000/svg"
 width="383.000000pt" height="383.000000pt" viewBox="0 0 383.000000 383.000000"
 preserveAspectRatio="xMidYMid meet">

<g transform="translate(0.000000,383.000000) scale(0.100000,-0.100000)"
fill="#000000" stroke="none">
<path d="M2910 3819 c-26 -8 -94 -69 -272 -247 -131 -130 -238 -240 -238 -243
0 -4 12 -10 28 -13 15 -4 83 -34 151 -68 l123 -60 -158 -160 c-88 -88 -177
-169 -198 -180 -95 -49 -211 15 -223 124 -8 65 12 96 150 235 119 120 120 122
95 132 -148 56 -425 84 -617 62 -343 -40 -647 -188 -891 -431 -212 -213 -346
-462 -411 -770 -18 -86 -22 -138 -23 -285 0 -157 3 -196 26 -300 14 -66 31
-133 37 -149 l12 -29 132 130 c141 140 164 153 242 139 67 -13 125 -85 125
-156 0 -55 -36 -102 -198 -264 l-160 -158 -60 123 c-34 68 -64 136 -68 152 -3
15 -9 27 -13 27 -3 0 -113 -107 -244 -238 -202 -202 -240 -244 -247 -278 -27
-116 82 -223 195 -193 32 9 77 48 237 207 109 108 199 194 202 191 2 -2 27
-35 55 -74 l51 -69 -274 -276 c-257 -258 -275 -278 -291 -331 -48 -153 62
-243 211 -175 49 23 100 69 319 286 143 143 264 260 268 260 6 0 121 -82 137
-96 2 -3 -82 -91 -187 -197 -106 -106 -197 -205 -203 -220 -35 -97 13 -192
111 -218 84 -23 105 -8 367 254 l233 234 80 -23 c265 -77 596 -69 867 21 220
74 411 193 582 365 175 174 292 363 365 585 47 144 66 248 72 412 7 160 -5
272 -44 431 l-25 104 235 236 c251 254 265 273 252 353 -8 45 -43 92 -86 114
-33 18 -111 20 -142 4 -12 -6 -108 -97 -214 -202 -106 -105 -194 -189 -197
-187 -14 16 -96 131 -96 137 0 4 117 125 260 268 217 219 263 270 286 319 68
149 -19 256 -173 211 -56 -16 -67 -26 -333 -291 l-276 -274 -69 51 c-39 28
-72 53 -75 55 -2 3 84 93 192 202 160 160 198 204 207 237 31 117 -81 227
-199 194z m60 -849 c55 -54 100 -105 100 -112 0 -7 -115 -128 -255 -268 l-255
-255 40 -80 c53 -108 71 -180 77 -310 10 -227 -61 -408 -222 -570 -160 -160
-343 -232 -565 -222 -128 5 -216 27 -318 78 l-77 39 -255 -255 c-140 -140
-261 -255 -268 -255 -17 0 -212 195 -212 212 0 7 115 128 255 268 l256 256
-40 85 c-51 106 -70 180 -77 294 -13 211 69 428 219 578 69 68 126 108 220
152 113 54 185 69 322 70 144 0 229 -19 342 -77 l77 -39 255 255 c141 141 262
256 269 256 7 0 58 -45 112 -100z m269 -369 c22 -42 51 -106 65 -141 l26 -64
-122 -124 c-68 -68 -135 -130 -150 -138 -83 -44 -186 5 -218 102 -25 75 -13
95 173 281 93 95 174 170 179 167 5 -3 26 -40 47 -83z m-1592 -1637 c18 -14
40 -38 48 -54 18 -34 20 -102 4 -133 -6 -12 -68 -79 -137 -149 l-125 -127 -61
23 c-72 27 -222 102 -230 114 -8 14 326 342 359 352 44 14 105 2 142 -26z"/>
</g>
</svg>
